<svg id="Layer_1" data-name="Layer 1" xmlns="http://www.w3.org/2000/svg" viewBox="0 0 122.88 20.71"><defs><style>.cls-1{fill:#1c4598;}</style></defs><title>nokia</title><path class="cls-1" d="M5.92,20.46H0V.33H10.23L22,15.36V.33h5.92V20.46h-10L5.92,5.18V20.46ZM56.2,14.23c0,2.8-.5,3.77-1.32,4.69-1.25,1.38-3.08,1.79-6.6,1.79H38.18c-3.52,0-5.35-.41-6.6-1.79-.82-.92-1.31-1.89-1.31-4.69V6.48c0-2.8.49-3.76,1.31-4.69C32.83.41,34.66,0,38.18,0h10.1c3.52,0,5.35.41,6.6,1.79.82.93,1.32,1.89,1.32,4.69v7.75ZM48,15.61c1.35,0,1.82-.08,2.15-.37s.43-.63.43-1.81V7.29c0-1.19-.13-1.54-.43-1.82S49.39,5.1,48,5.1H38.43c-1.35,0-1.83.08-2.15.37s-.44.63-.44,1.82v6.14c0,1.18.13,1.53.44,1.81s.8.37,2.15.37ZM64.8.33V20.46H58.61V.33Zm10.44,0H83.4l-11,9.42L84.81,20.46H76.08L64.8,10,75.24.33ZM86,.33h6.19V20.46H86V.33Zm29.76,20.13L113.88,17h-12l-1.8,3.5H93.28l11-20.12h7.68l11,20.13Zm-11.65-7.88h7.69L107.91,5.3l-3.85,7.28Z"/></svg>